<svg xmlns="http://www.w3.org/2000/svg" version="1.1" width="2560px" height="678px" style="shape-rendering:geometricPrecision; text-rendering:geometricPrecision; image-rendering:optimizeQuality; fill-rule:evenodd; clip-rule:evenodd" xmlns:xlink="http://www.w3.org/1999/xlink">
<g><path style="opacity:0.998" fill="#002c88" d="M 92.5,-0.5 C 169.167,-0.5 245.833,-0.5 322.5,-0.5C 375.341,5.3279 416.841,29.9946 447,73.5C 461.818,98.4343 469.318,125.434 469.5,154.5C 469.167,154.5 468.833,154.5 468.5,154.5C 446.435,143.65 423.102,137.483 398.5,136C 335.5,135.333 272.5,135.333 209.5,136C 202.572,138.594 198.072,143.427 196,150.5C 185.834,215.162 175.667,279.829 165.5,344.5C 165.52,345.726 165.853,346.726 166.5,347.5C 165.406,349.359 164.573,351.359 164,353.5C 154.252,416.713 144.085,479.713 133.5,542.5C 92.1653,542.667 50.832,542.5 9.5,542C 4.98004,539.978 1.6467,536.811 -0.5,532.5C -0.5,527.833 -0.5,523.167 -0.5,518.5C 26.4088,351.707 52.9088,184.707 79,17.5C 79.9532,8.72841 84.4532,2.72841 92.5,-0.5 Z"/></g>
<g><path style="opacity:0.993" fill="#002c88" d="M 815.5,134.5 C 868.52,134.05 921.52,134.55 974.5,136C 1022.41,142.296 1057.25,166.796 1079,209.5C 1092.88,243.782 1092.88,278.115 1079,312.5C 1052.77,371.879 1007.27,404.712 942.5,411C 916.5,411.333 890.5,411.667 864.5,412C 862.376,413.122 860.543,414.622 859,416.5C 851.965,456.406 845.298,496.406 839,536.5C 838.215,538.286 837.049,539.786 835.5,541C 807.587,542.649 779.587,542.983 751.5,542C 748.079,539.743 746.079,536.576 745.5,532.5C 766.105,403.201 786.605,273.868 807,144.5C 807.908,139.432 810.741,136.099 815.5,134.5 Z M 888.5,222.5 C 910.503,222.333 932.503,222.5 954.5,223C 979.03,226.695 992.363,240.862 994.5,265.5C 992.313,296.179 976.313,315.013 946.5,322C 940.539,322.997 934.539,323.663 928.5,324C 909.824,324.833 891.158,324.666 872.5,323.5C 878.374,289.925 883.707,256.259 888.5,222.5 Z"/></g>
<g><path style="opacity:0.997" fill="#0070e1" d="M 1804.5,134.5 C 1853.83,134.333 1903.17,134.5 1952.5,135C 2006.26,138.772 2045.09,164.606 2069,212.5C 2081.72,245.58 2081.39,278.58 2068,311.5C 2045.7,364.794 2006.2,397.294 1949.5,409C 1943.53,409.907 1937.53,410.573 1931.5,411C 1905.5,411.333 1879.5,411.667 1853.5,412C 1848.92,413.981 1846.42,417.481 1846,422.5C 1840.33,458.5 1834.67,494.5 1829,530.5C 1828.75,535.502 1826.59,539.335 1822.5,542C 1795.17,542.667 1767.83,542.667 1740.5,542C 1737.62,540.749 1735.79,538.583 1735,535.5C 1754.58,404.435 1774.91,273.435 1796,142.5C 1797.44,138.218 1800.28,135.551 1804.5,134.5 Z M 1877.5,222.5 C 1899.17,222.333 1920.84,222.5 1942.5,223C 1972.55,228.235 1985.72,246.069 1982,276.5C 1976.1,301.401 1960.6,316.568 1935.5,322C 1929.54,322.997 1923.54,323.663 1917.5,324C 1898.84,324.5 1880.17,324.667 1861.5,324.5C 1866.83,290.5 1872.17,256.5 1877.5,222.5 Z"/></g>
<g><path style="opacity:0.997" fill="#0070e1" d="M 2559.5,140.5 C 2559.5,144.5 2559.5,148.5 2559.5,152.5C 2538.97,280.367 2518.47,408.367 2498,536.5C 2496.83,539 2495,540.833 2492.5,542C 2465.17,542.667 2437.83,542.667 2410.5,542C 2406.66,539.323 2404.99,535.656 2405.5,531C 2425.51,401.088 2446.01,271.255 2467,141.5C 2468.59,138.244 2471.09,136.077 2474.5,135C 2500.5,134.333 2526.5,134.333 2552.5,135C 2555.62,135.967 2557.95,137.8 2559.5,140.5 Z"/></g>
<g><path style="opacity:1" fill="#001564" d="M 468.5,154.5 C 462.172,235.286 422.172,292.119 348.5,325C 329.839,332.266 310.506,336.599 290.5,338C 253.167,338.333 215.833,338.667 178.5,339C 173.55,340.629 169.55,343.462 166.5,347.5C 165.853,346.726 165.52,345.726 165.5,344.5C 175.667,279.829 185.834,215.162 196,150.5C 198.072,143.427 202.572,138.594 209.5,136C 272.5,135.333 335.5,135.333 398.5,136C 423.102,137.483 446.435,143.65 468.5,154.5 Z"/></g>
<g><path style="opacity:0.999" fill="#0070e0" d="M 468.5,154.5 C 468.833,154.5 469.167,154.5 469.5,154.5C 528.409,188.307 555.242,239.307 550,307.5C 538.322,378.821 499.822,429.655 434.5,460C 411.119,469.609 386.786,474.609 361.5,475C 338.833,475.333 316.167,475.667 293.5,476C 285.714,478.788 281.214,484.288 280,492.5C 271.108,549.517 262.108,606.517 253,663.5C 251.127,669.864 247.294,674.531 241.5,677.5C 202.167,677.5 162.833,677.5 123.5,677.5C 115.854,671.746 113.354,664.079 116,654.5C 121.943,617.173 127.777,579.84 133.5,542.5C 144.085,479.713 154.252,416.713 164,353.5C 164.573,351.359 165.406,349.359 166.5,347.5C 169.55,343.462 173.55,340.629 178.5,339C 215.833,338.667 253.167,338.333 290.5,338C 310.506,336.599 329.839,332.266 348.5,325C 422.172,292.119 462.172,235.286 468.5,154.5 Z"/></g>
<g><path style="opacity:0.994" fill="#002c88" d="M 1221.5,247.5 C 1258.31,244.441 1290.65,254.775 1318.5,278.5C 1319.77,273.196 1320.94,267.863 1322,262.5C 1323.48,259.337 1325.98,257.504 1329.5,257C 1354.17,256.333 1378.83,256.333 1403.5,257C 1408.6,258.609 1411.27,262.109 1411.5,267.5C 1397.32,357.565 1382.82,447.565 1368,537.5C 1366.46,539.378 1364.62,540.878 1362.5,542C 1336.5,542.667 1310.5,542.667 1284.5,542C 1282.62,540.457 1281.12,538.624 1280,536.5C 1279.54,532.118 1279.54,527.784 1280,523.5C 1227.3,557.986 1174.46,558.152 1121.5,524C 1094.7,502.907 1078.87,475.407 1074,441.5C 1066.69,379.414 1085.86,327.247 1131.5,285C 1157.96,264.012 1187.96,251.512 1221.5,247.5 Z M 1235.5,331.5 C 1274.53,333.697 1296.2,354.197 1300.5,393C 1297.34,431.482 1277.34,456.149 1240.5,467C 1211.18,473.342 1187.35,464.842 1169,441.5C 1152.48,406.798 1158.31,376.298 1186.5,350C 1200.87,338.38 1217.2,332.213 1235.5,331.5 Z"/></g>
<g><path style="opacity:0.998" fill="#0070e1" d="M 2210.5,247.5 C 2247.08,244.675 2279.24,255.008 2307,278.5C 2308.46,274.01 2309.46,269.344 2310,264.5C 2311.17,260.667 2313.67,258.167 2317.5,257C 2342.5,256.333 2367.5,256.333 2392.5,257C 2395.58,257.786 2397.75,259.619 2399,262.5C 2399.57,268.539 2399.24,274.539 2398,280.5C 2384.57,364.819 2371.24,449.152 2358,533.5C 2357.33,537.499 2355.17,540.332 2351.5,542C 2325.5,542.667 2299.5,542.667 2273.5,542C 2270.34,540.52 2268.5,538.02 2268,534.5C 2267.79,530.906 2268.29,527.406 2269.5,524C 2217.23,557.533 2164.56,557.866 2111.5,525C 2077.23,497.618 2060.23,461.784 2060.5,417.5C 2061.81,364.06 2082.14,319.56 2121.5,284C 2147.85,263.718 2177.51,251.551 2210.5,247.5 Z M 2224.5,331.5 C 2256.14,332.382 2276.97,347.715 2287,377.5C 2292.17,418.004 2276.34,446.837 2239.5,464C 2210.69,474.305 2185.19,469.139 2163,448.5C 2143.44,422.303 2142.44,395.303 2160,367.5C 2175.5,344.668 2197,332.668 2224.5,331.5 Z"/></g>
<g><path style="opacity:0.994" fill="#002c88" d="M 1440.5,256.5 C 1467.17,256.333 1493.84,256.5 1520.5,257C 1522.87,257.536 1524.87,258.703 1526.5,260.5C 1541.69,307.228 1556.19,354.228 1570,401.5C 1598.29,354.416 1626.46,307.249 1654.5,260C 1656.27,258.561 1658.27,257.561 1660.5,257C 1689.5,256.333 1718.5,256.333 1747.5,257C 1752.12,259.077 1753.95,262.577 1753,267.5C 1682.67,384.167 1612.33,500.833 1542,617.5C 1540.13,619.709 1537.96,621.542 1535.5,623C 1505.5,623.667 1475.5,623.667 1445.5,623C 1442.73,621.317 1441.07,618.817 1440.5,615.5C 1462.94,576.782 1486.28,538.615 1510.5,501C 1485.11,423.6 1459.94,346.1 1435,268.5C 1433.87,263.089 1435.71,259.089 1440.5,256.5 Z"/></g>
</svg>
